<?xml version="1.0" standalone="no"?>
<!DOCTYPE svg PUBLIC "-//W3C//DTD SVG 20010904//EN"
 "http://www.w3.org/TR/2001/REC-SVG-20010904/DTD/svg10.dtd">
<svg version="1.0" xmlns="http://www.w3.org/2000/svg"
 width="717.000000pt" height="594.000000pt" viewBox="0 0 717.000000 594.000000"
 preserveAspectRatio="xMidYMid meet">

<g transform="translate(0.000000,594.000000) scale(0.100000,-0.100000)"
fill="#000000" stroke="none">
<path d="M4415 5560 c-416 -45 -805 -255 -1064 -575 -172 -212 -285 -463 -332
-736 -18 -105 -20 -151 -16 -299 6 -235 37 -378 123 -577 93 -216 237 -416
398 -555 l71 -61 5 -269 5 -270 33 -29 c61 -55 75 -49 303 130 l202 158 53
-13 c100 -27 249 -44 374 -44 669 0 1266 421 1483 1047 178 511 89 1070 -237
1487 -184 236 -449 426 -730 525 -194 68 -474 102 -671 81z m310 -200 c496
-57 925 -378 1117 -836 209 -502 101 -1090 -272 -1478 -147 -153 -300 -258
-482 -331 -158 -63 -271 -86 -459 -92 -181 -6 -270 3 -421 42 -114 30 -112 30
-273 -99 -66 -52 -123 -96 -127 -96 -5 0 -8 82 -8 183 0 210 8 189 -114 288
-430 350 -599 960 -415 1500 109 319 364 616 659 768 118 61 179 85 300 116
166 43 324 54 495 35z"/>
<path d="M4492 5033 c-62 -19 -134 -78 -165 -137 -31 -58 -31 -184 0 -241 54
-102 169 -164 277 -151 103 13 202 95 227 190 15 54 7 152 -15 197 -57 119
-198 181 -324 142z m119 -196 c31 -24 42 -56 28 -88 -32 -78 -139 -58 -139 26
0 56 68 95 111 62z"/>
<path d="M4159 4321 l-29 -29 0 -214 c1 -152 4 -218 13 -229 21 -27 54 -39
106 -39 l51 0 0 -165 0 -165 -59 0 c-50 0 -62 -4 -85 -26 l-26 -27 0 -214 0
-215 29 -29 29 -29 377 0 c415 0 423 1 444 61 17 49 15 381 -3 423 -18 44 -29
50 -101 56 l-60 5 -5 408 -5 409 -28 24 -28 24 -295 0 -296 0 -29 -29z m491
-575 l0 -403 26 -27 c23 -22 35 -26 85 -26 l59 0 0 -75 0 -75 -250 0 -251 0 3
73 3 72 60 5 c113 10 115 15 115 355 0 340 -2 345 -115 355 l-60 5 -3 72 -3
72 158 3 c87 2 161 2 166 0 4 -2 7 -185 7 -406z"/>
<path d="M2495 2165 c-186 -30 -392 -108 -507 -190 l-49 -36 -30 25 c-53 45
-80 47 -484 44 -431 -3 -420 -1 -480 -87 l-30 -43 -3 -639 c-2 -426 1 -653 8
-679 14 -51 54 -98 105 -121 36 -17 73 -19 418 -19 393 0 420 2 467 45 13 11
29 7 114 -35 54 -27 140 -59 190 -72 l91 -23 1065 0 c1004 0 1068 1 1125 18
79 24 148 60 270 139 55 35 359 230 675 433 316 202 592 384 613 404 59 56 89
130 90 217 1 172 -126 304 -292 304 -61 0 -94 -10 -576 -180 -557 -196 -854
-299 -880 -306 l-28 -7 6 49 c22 202 -126 404 -338 460 -35 10 -122 14 -291
14 -322 0 -390 16 -536 129 -87 66 -158 105 -253 137 -70 24 -98 28 -225 30
-93 2 -177 -2 -235 -11z m370 -199 c79 -21 134 -49 215 -110 90 -68 211 -129
300 -151 48 -13 138 -19 345 -24 262 -6 283 -8 321 -28 48 -26 90 -72 115
-128 22 -49 24 -85 5 -130 l-15 -35 -253 0 c-285 0 -342 -8 -461 -63 -71 -33
-170 -98 -193 -128 -36 -46 -15 -121 39 -144 44 -18 67 -11 156 47 137 89 146
91 621 98 l415 6 230 83 c127 46 248 89 270 96 22 7 157 54 300 105 579 205
571 202 610 185 43 -17 70 -71 60 -121 -7 -41 -34 -63 -210 -176 -195 -124
-251 -159 -405 -258 -633 -407 -790 -506 -839 -529 l-56 -26 -995 -3 c-682 -2
-1026 0 -1092 8 -145 17 -271 65 -345 133 l-23 20 0 507 0 506 48 45 c112 109
260 176 467 213 104 18 305 20 370 2z m-1085 -751 l0 -595 -335 0 -335 0 0
595 0 595 335 0 335 0 0 -595z"/>
<path d="M1289 1021 c-21 -22 -29 -39 -29 -66 0 -112 175 -131 196 -21 7 38
-15 89 -45 106 -39 20 -91 12 -122 -19z"/>
</g>
</svg>
