<?xml version="1.0" standalone="no"?>
<!DOCTYPE svg PUBLIC "-//W3C//DTD SVG 20010904//EN"
 "http://www.w3.org/TR/2001/REC-SVG-20010904/DTD/svg10.dtd">
<svg version="1.0" xmlns="http://www.w3.org/2000/svg"
 width="860.000000pt" height="847.000000pt" viewBox="0 0 860.000000 847.000000"
 preserveAspectRatio="xMidYMid meet">

<g transform="translate(0.000000,847.000000) scale(0.100000,-0.100000)"
fill="#000000" stroke="none">
<path d="M5755 8035 c-416 -57 -820 -232 -1138 -494 -89 -73 -259 -245 -328
-331 -480 -599 -622 -1419 -372 -2143 112 -327 294 -618 538 -862 465 -467
1144 -710 1796 -645 57 6 170 24 252 41 99 20 160 28 185 23 20 -3 169 -71
329 -149 161 -79 306 -146 322 -150 73 -16 170 47 190 122 5 21 18 182 29 359
23 368 19 353 127 474 349 388 542 814 596 1315 23 220 -2 546 -60 771 -76
295 -236 616 -426 854 -335 419 -820 703 -1370 801 -154 28 -516 35 -670 14z
m1710 -1114 c47 -22 89 -64 104 -104 15 -39 15 -1955 0 -1994 -15 -40 -57 -82
-104 -104 -38 -18 -98 -19 -1415 -19 -1309 0 -1377 1 -1415 19 -51 23 -102 81
-110 123 -3 18 -4 470 -3 1004 l3 970 27 41 c15 23 44 49 70 62 l43 21 1380 0
c1322 0 1382 -1 1420 -19z"/>
<path d="M5392 6548 c6 -17 651 -459 664 -454 26 10 654 448 654 457 0 5 -264
9 -661 9 -495 0 -660 -3 -657 -12z"/>
<path d="M4890 5765 l0 -665 1155 0 1155 0 0 660 c0 363 -3 660 -6 660 -3 0
-239 -164 -524 -365 -566 -399 -568 -400 -666 -376 -33 9 -187 111 -574 381
-291 204 -531 370 -534 370 -3 0 -6 -299 -6 -665z"/>
<path d="M1660 7435 c-83 -24 -134 -45 -245 -104 -235 -123 -585 -372 -734
-521 -330 -330 -426 -764 -315 -1420 79 -468 270 -989 588 -1605 240 -463 446
-804 686 -1135 517 -711 1058 -1291 1505 -1614 412 -297 778 -450 1110 -463
323 -13 603 102 1035 425 274 206 393 382 360 535 -6 29 -19 66 -28 84 -23 42
-923 1123 -964 1159 -18 15 -62 41 -98 58 -55 26 -77 31 -145 31 -118 0 -178
-26 -312 -137 -133 -111 -371 -291 -415 -315 -24 -13 -56 -18 -113 -18 -72 0
-86 3 -145 34 -44 24 -95 65 -160 131 -90 91 -110 119 -400 585 -167 270 -359
571 -426 670 -160 238 -401 612 -464 722 -100 175 -155 355 -148 488 9 168 69
222 429 390 109 51 230 114 269 140 125 83 190 195 190 328 0 95 -17 152 -78
268 -28 53 -170 336 -317 629 -287 572 -305 602 -400 646 -41 19 -66 24 -135
23 -47 0 -105 -7 -130 -14z"/>
</g>
</svg>
