<?xml version="1.0" standalone="no"?>
<!DOCTYPE svg PUBLIC "-//W3C//DTD SVG 20010904//EN"
 "http://www.w3.org/TR/2001/REC-SVG-20010904/DTD/svg10.dtd">
<svg version="1.0" xmlns="http://www.w3.org/2000/svg"
 width="512.000000pt" height="512.000000pt" viewBox="0 0 512.000000 512.000000"
 preserveAspectRatio="xMidYMid meet">

<g transform="translate(0.000000,512.000000) scale(0.100000,-0.100000)"
fill="#000000" stroke="none">
<path d="M853 4625 c-158 -43 -285 -166 -333 -323 -19 -61 -20 -94 -20 -621 0
-610 0 -610 60 -716 39 -68 120 -147 190 -184 110 -59 134 -61 701 -61 308 0
538 4 570 10 147 28 282 130 344 262 53 111 57 166 53 743 -3 488 -4 513 -25
572 -54 160 -178 276 -340 318 -82 21 -1121 21 -1200 0z m1175 -333 c69 -50
67 -29 67 -613 l0 -525 -25 -37 c-14 -21 -44 -46 -66 -57 -40 -20 -58 -20
-562 -18 -510 3 -521 3 -549 24 -15 11 -38 36 -50 54 l-23 33 0 526 c0 593 -2
573 76 618 l39 23 530 -3 530 -2 33 -23z"/>
<path d="M3087 4629 c-115 -27 -249 -131 -305 -237 -61 -115 -62 -123 -62
-703 0 -310 4 -548 10 -580 34 -183 198 -344 384 -378 38 -7 248 -11 573 -11
430 0 525 3 583 16 173 39 323 192 360 367 7 37 10 229 8 608 -3 539 -4 556
-24 611 -58 151 -193 272 -344 307 -56 13 -1128 13 -1183 0z m1153 -331 c18
-13 43 -36 54 -51 21 -28 21 -36 21 -565 l0 -537 -24 -34 c-13 -18 -42 -42
-65 -52 -38 -17 -75 -19 -546 -19 -505 0 -506 0 -550 23 -30 14 -53 36 -67 62
l-23 40 3 527 c2 517 2 527 23 555 11 15 36 38 54 51 l33 22 527 0 527 0 33
-22z"/>
<path d="M851 2384 c-159 -43 -295 -178 -337 -338 -11 -40 -14 -168 -14 -607
0 -525 1 -560 20 -620 50 -165 202 -299 372 -330 37 -6 254 -9 600 -7 l543 3
60 24 c132 53 214 127 271 246 52 109 56 156 52 731 -3 497 -4 522 -25 581
-53 157 -170 269 -332 317 -48 14 -127 16 -605 15 -448 0 -561 -3 -605 -15z
m1177 -332 c69 -50 67 -29 67 -612 l0 -525 -23 -37 c-13 -22 -40 -45 -66 -58
-43 -20 -53 -20 -564 -18 -510 3 -521 3 -549 24 -15 11 -38 36 -50 54 l-23 33
0 526 c0 593 -2 573 76 618 l39 23 530 -3 530 -2 33 -23z"/>
<path d="M3087 2389 c-115 -27 -249 -131 -305 -237 -61 -115 -62 -123 -62
-703 0 -310 4 -548 10 -580 34 -183 198 -344 384 -378 38 -7 248 -11 573 -11
430 0 525 3 583 16 173 39 323 192 360 367 7 37 10 229 8 608 -3 539 -4 556
-24 611 -58 151 -193 272 -344 307 -56 13 -1128 13 -1183 0z m1153 -331 c18
-13 43 -36 54 -51 21 -28 21 -36 21 -565 l0 -537 -24 -34 c-13 -18 -42 -42
-65 -52 -38 -17 -75 -19 -546 -19 -505 0 -506 0 -550 23 -30 14 -53 36 -67 62
l-23 40 3 527 c2 517 2 527 23 555 11 15 36 38 54 51 l33 22 527 0 527 0 33
-22z"/>
</g>
</svg>
