<?xml version="1.0" standalone="no"?>
<!DOCTYPE svg PUBLIC "-//W3C//DTD SVG 20010904//EN"
 "http://www.w3.org/TR/2001/REC-SVG-20010904/DTD/svg10.dtd">
<svg version="1.0" xmlns="http://www.w3.org/2000/svg"
 width="980.000000pt" height="980.000000pt" viewBox="0 0 980.000000 980.000000"
 preserveAspectRatio="xMidYMid meet">

<g transform="translate(0.000000,980.000000) scale(0.100000,-0.100000)"
fill="#000000" stroke="none">
<path d="M7035 9789 c-169 -25 -333 -96 -475 -205 -30 -23 -440 -429 -911
-901 -644 -645 -867 -876 -902 -929 -61 -92 -102 -187 -135 -304 -24 -87 -27
-110 -26 -265 1 -188 13 -251 75 -401 72 -172 83 -184 1026 -1125 740 -738
890 -883 953 -922 354 -217 785 -208 1133 24 72 48 1741 1707 1817 1807 265
345 277 833 29 1204 -50 75 -1709 1742 -1809 1819 -216 164 -504 237 -775 198z
m317 -579 c32 -12 83 -41 115 -64 32 -24 425 -412 874 -862 612 -615 822 -832
842 -870 55 -106 71 -228 42 -337 -34 -131 -14 -109 -898 -995 -458 -458 -853
-847 -880 -863 -147 -96 -374 -95 -517 0 -25 17 -421 407 -881 868 -893 895
-869 869 -898 994 -15 62 -13 165 3 224 34 128 16 108 914 1007 896 895 876
877 1005 913 71 20 204 13 279 -15z"/>
<path d="M836 8945 c-398 -80 -708 -375 -808 -771 l-23 -89 0 -1270 0 -1270
22 -85 c51 -202 146 -363 296 -506 107 -102 217 -172 346 -220 177 -67 133
-65 1517 -62 l1249 3 85 24 c102 28 244 93 331 151 135 91 286 273 354 425 46
105 75 224 85 350 12 156 12 2224 0 2380 -35 448 -329 803 -769 928 l-76 22
-1270 2 c-1045 1 -1282 -1 -1339 -12z m2624 -586 c128 -62 206 -149 249 -277
21 -62 21 -67 19 -1285 l-3 -1222 -33 -69 c-18 -39 -48 -89 -67 -112 -47 -57
-143 -120 -222 -144 -64 -20 -91 -20 -1252 -20 -958 0 -1196 3 -1236 14 -123
33 -238 120 -293 225 -65 120 -62 58 -62 1343 0 832 3 1182 11 1220 34 159
161 299 317 349 54 17 116 18 1277 16 l1220 -2 75 -36z"/>
<path d="M805 4270 c-374 -85 -670 -371 -772 -745 l-28 -100 -3 -1225 c-2
-847 1 -1251 8 -1309 59 -452 429 -822 881 -881 58 -7 462 -10 1309 -8 l1225
3 100 28 c292 80 529 274 661 542 66 136 92 232 105 400 7 83 9 544 6 1275 -4
1270 0 1191 -71 1382 -46 123 -117 236 -213 337 -131 140 -274 228 -468 288
l-90 28 -1285 2 c-1213 1 -1289 1 -1365 -17z m2604 -559 c147 -46 263 -164
305 -312 15 -49 16 -183 14 -1275 l-3 -1220 -37 -75 c-65 -131 -176 -222 -309
-254 -97 -23 -2375 -23 -2464 0 -167 44 -296 173 -340 342 -13 49 -15 222 -15
1225 0 811 3 1183 11 1220 33 160 154 295 314 350 46 16 138 17 1257 18 1156
0 1209 -1 1267 -19z"/>
<path d="M5530 4283 c-321 -55 -607 -267 -752 -558 -46 -92 -73 -171 -92 -274
-14 -73 -16 -232 -16 -1301 0 -1346 -2 -1307 64 -1481 53 -143 118 -241 236
-360 116 -117 209 -180 341 -233 187 -75 96 -71 1509 -71 l1265 0 85 22 c378
96 654 369 763 751 l22 77 3 1245 c3 1319 3 1334 -44 1477 -108 332 -356 573
-699 680 l-90 28 -1285 1 c-707 1 -1296 0 -1310 -3z m2552 -574 c152 -51 263
-169 304 -324 11 -40 14 -278 14 -1241 0 -1060 -2 -1196 -16 -1245 -48 -162
-189 -293 -352 -328 -37 -8 -400 -11 -1220 -11 -1285 0 -1222 -3 -1344 62
-105 56 -200 181 -227 299 -7 28 -11 467 -11 1230 0 1156 1 1189 20 1251 47
152 160 265 315 314 31 10 301 13 1248 13 1197 1 1208 1 1269 -20z"/>
</g>
</svg>
