<?xml version="1.0" standalone="no"?>
<!DOCTYPE svg PUBLIC "-//W3C//DTD SVG 20010904//EN"
 "http://www.w3.org/TR/2001/REC-SVG-20010904/DTD/svg10.dtd">
<svg version="1.0" xmlns="http://www.w3.org/2000/svg"
 width="512.000000pt" height="511.000000pt" viewBox="0 0 512.000000 511.000000"
 preserveAspectRatio="xMidYMid meet">

<g transform="translate(0.000000,511.000000) scale(0.100000,-0.100000)"
fill="#000000" stroke="none">
<path d="M1395 4284 c-11 -2 -45 -9 -75 -15 -207 -41 -412 -216 -511 -435 -60
-131 -74 -204 -73 -374 1 -139 3 -164 28 -245 61 -203 188 -371 354 -471 26
-16 32 -24 22 -27 -117 -37 -222 -77 -294 -115 -352 -181 -629 -520 -760 -930
-39 -119 -73 -296 -77 -397 l-3 -60 374 0 374 0 21 85 c126 498 416 917 820
1183 50 32 116 72 147 88 l58 29 -56 83 c-201 298 -263 657 -172 1002 42 159
135 342 229 448 23 26 40 49 38 51 -18 16 -138 68 -189 81 -64 17 -217 28
-255 19z"/>
<path d="M2390 4259 c-302 -79 -530 -319 -622 -657 -29 -107 -31 -351 -4 -467
24 -104 64 -205 118 -296 54 -91 192 -231 276 -280 l63 -37 -103 -33 c-114
-36 -289 -122 -386 -188 -415 -282 -708 -761 -787 -1289 -8 -53 -15 -118 -15
-144 l0 -48 1651 0 1652 0 -7 89 c-33 445 -229 873 -537 1179 -214 211 -433
339 -738 428 -7 2 20 26 60 52 184 121 315 308 377 542 34 131 36 352 4 480
-85 340 -319 591 -626 670 -106 27 -271 27 -376 -1z"/>
<path d="M3487 4264 c-32 -7 -91 -29 -133 -48 l-75 -35 47 -58 c252 -309 331
-742 208 -1135 -31 -99 -108 -253 -164 -326 -22 -29 -40 -56 -40 -60 0 -4 28
-22 63 -41 259 -140 485 -345 656 -596 148 -216 236 -418 311 -712 l11 -43
374 0 375 0 0 23 c-1 48 -30 239 -49 318 -132 554 -543 1006 -1045 1149 l-59
16 44 27 c122 73 229 193 295 332 68 144 79 195 79 385 0 143 -3 176 -23 244
-30 103 -98 235 -162 313 -96 116 -251 215 -390 247 -80 19 -245 19 -323 0z"/>
</g>
</svg>
